<?xml version="1.0" encoding="UTF-8"?>
<svg width="24px" height="24px" viewBox="0 0 24 24" version="1.1" xmlns="http://www.w3.org/2000/svg" xmlns:xlink="http://www.w3.org/1999/xlink">
    <title>62823529-B540-4F50-960B-F1909332C00E</title>
    <g id="New-(2021)---Shad" stroke="none" stroke-width="1" fill="none" fill-rule="evenodd">
        <g id="1.2-dBat---LME-Display---Pre-approved-offer-(desktop)" transform="translate(-684.000000, -888.000000)">
            <g id="Card/Inline-Preapproved-offer/Desktop/44646\" transform="translate(668.000000, 872.000000)">
                <g id="z/LME/account-Copy-4" transform="translate(16.000000, 16.000000)">
                    <circle id="Oval" fill="#D061A1" cx="12" cy="12" r="12"></circle>
                    <path d="M14.1937125,7.93341424 C17.107695,10.3309151 18.682645,12.2716001 18.9185624,13.7554694 C19.0832794,14.791503 18.8691155,15.9563813 18.2760707,17.2501042 C17.7873,18.3163876 16.7219163,19 15.5489469,19 L8.62342727,19 C7.70955169,19.0000038 6.84551016,18.5834478 6.27632978,17.8684637 C5.31858212,16.6653752 4.90531227,15.3714617 5.03652024,13.9867232 C5.20988563,12.157065 6.96421848,10.1450767 10.2995188,7.95075828 L14.1937125,7.93341424 Z M12.4025953,9.44909014 L11.7121841,9.44909014 L11.7121841,10.3134506 C11.3648057,10.345915 11.0594067,10.4338381 10.795978,10.5772225 C10.5325494,10.720607 10.3284676,10.9099798 10.1837265,11.1453467 C10.0389855,11.3807137 9.9666161,11.6498936 9.9666161,11.9528947 C9.9666161,12.2964763 10.0433277,12.5832409 10.1967532,12.8131971 C10.3501787,13.0431533 10.56005,13.2345552 10.8263735,13.3874084 C11.092697,13.5402616 11.442965,13.6951416 11.8771881,13.8520528 C12.0942996,13.9305085 12.2643677,14.0089629 12.3873976,14.0874186 C12.5104275,14.1658742 12.6001656,14.2558263 12.6566146,14.3572776 C12.7130636,14.4587288 12.7412876,14.5838502 12.7412876,14.7326454 C12.7412876,14.9328425 12.6747078,15.0944858 12.541546,15.21758 C12.4083843,15.3406742 12.2158816,15.4022203 11.9640322,15.4022203 C11.6977088,15.4022203 11.4777057,15.3257949 11.3040165,15.1729416 C11.1303272,15.0200884 11.0434839,14.7705221 11.0434839,14.4242351 L11.0434839,14.4242351 L9.73213681,14.4242351 C9.73213681,14.8408616 9.81898012,15.1878197 9.99266935,15.4651198 C10.1663586,15.7424199 10.395046,15.9527591 10.6787384,16.0961435 C10.9624308,16.2395279 11.2779615,16.3288037 11.6253399,16.3639735 L11.6253399,16.3639735 L11.6253399,17.1715215 L12.3157512,17.1715215 L12.3157512,16.3639735 C12.6660244,16.3288037 12.9714234,16.2415569 13.2319573,16.1022305 C13.4924911,15.9629041 13.6936781,15.776913 13.8355243,15.5442514 C13.9773705,15.3115898 14.0482926,15.0383519 14.0482926,14.7245293 C14.0482926,14.3836531 13.971581,14.0982411 13.8181555,13.868285 C13.66473,13.6383288 13.4555824,13.4455743 13.1907063,13.2900157 C12.9258302,13.1344571 12.5791807,12.9755191 12.1507472,12.8131971 C11.9249512,12.7293307 11.7498172,12.6468183 11.6253399,12.5656573 C11.5008627,12.4844963 11.4118483,12.3965732 11.3582941,12.3018853 C11.3047399,12.2071975 11.2779632,12.0935738 11.2779632,11.9610108 C11.2779632,11.7581083 11.3373061,11.5937597 11.4559938,11.4679601 C11.5746814,11.3421606 11.7527102,11.2792617 11.9900855,11.2792617 C12.224566,11.2792617 12.4098317,11.3577162 12.5458882,11.5146275 C12.6819448,11.6715388 12.7499721,11.9041968 12.7499721,12.2126087 L12.7499721,12.2126087 L14.056977,12.2126087 C14.056977,11.860911 13.9896734,11.5511511 13.8550643,11.2833198 C13.7204551,11.0154884 13.5286761,10.800415 13.2797216,10.638093 C13.030767,10.475771 12.7383945,10.3716159 12.4025953,10.3256247 L12.4025953,10.3256247 L12.4025953,9.44909014 Z M15.4813484,4.00576355 L13.9905421,7.22298967 L10.1406532,7.22298967 L8.74404303,4.25608896 C9.46508695,3.56909101 10.5184635,3.15984689 11.9041728,3.02835662 C13.289882,2.89686634 14.4822739,3.22266865 15.4813484,4.00576355 Z" id="Rectangle-36" fill="#FFFFFF"></path>
                </g>
            </g>
        </g>
    </g>
</svg>