<?xml version="1.0" encoding="UTF-8"?>
<svg width="24px" height="24px" viewBox="0 0 24 24" version="1.1" xmlns="http://www.w3.org/2000/svg" xmlns:xlink="http://www.w3.org/1999/xlink">
    <title>5D9D8275-5C05-4AD3-A599-482C239141F8</title>
    <g id="New-(2021)---Shad" stroke="none" stroke-width="1" fill="none" fill-rule="evenodd">
        <g id="1.23-dBat---LME-Display---General-offer-(Desktop)" transform="translate(-684.000000, -888.000000)">
            <g id="Card/Inline-non-preapproved-offer/Desktop" transform="translate(668.000000, 872.000000)">
                <g id="z/LME/other" transform="translate(16.000000, 16.000000)">
                    <path d="M12.6842105,4 L12.6841602,6.02262576 C14.6838023,6.29106975 16.2354341,7.71819268 16.2354341,9.47669008 C16.2354341,9.9770506 15.8284554,10.3819214 15.3278245,10.3819214 C14.8269589,10.3819214 14.4202148,9.97719298 14.4202148,9.47669008 C14.4202148,8.5799467 13.356021,7.7876557 12.0006673,7.7876557 C10.6459358,7.7876557 9.58188598,8.58003233 9.58188598,9.47669008 C9.58188598,10.2583966 10.5720889,10.948845 12.1284443,11.1741954 C12.1287722,11.1741585 12.1297685,11.1743248 12.1307648,11.1744928 C14.5979782,11.5306102 16.2354341,12.8183406 16.2354341,14.6644221 C16.2354341,16.2212392 15.0188509,17.5182179 13.3518917,17.9811943 L13.3508772,19.8982456 L11.877193,19.8982456 L11.8766667,18.16 L11.7845998,18.158667 C9.56501211,18.0662142 7.76666667,16.5573911 7.76666667,14.6644221 C7.76666667,14.1638276 8.17349699,13.7591908 8.67427632,13.7591908 C9.1752902,13.7591908 9.58188598,14.1636809 9.58188598,14.6644221 C9.58188598,15.5604326 10.6461275,16.3526952 12.0006673,16.3526952 C13.3558292,16.3526952 14.4202148,15.5605182 14.4202148,14.6644221 C14.4202148,13.8824987 13.4299913,13.1917909 11.8739113,12.9663032 C11.8700577,12.9658219 11.8657773,12.9651618 11.8614961,12.9644672 C9.40371681,12.6097178 7.76666667,11.3219397 7.76666667,9.47669008 C7.76666667,7.74977297 9.26279085,6.34242121 11.2100499,6.03819989 L11.2105263,4 L12.6842105,4 Z" id="Combined-Shape" fill="#FFFFFF" fill-rule="nonzero"></path>
                    <circle id="Oval" fill="#0079C1" cx="12" cy="12" r="12"></circle>
                    <g id="Group-2" transform="translate(7.000000, 5.000000)" fill="#FFFFFF">
                        <path d="M5,0 C7.76142375,0 10,2.23857625 10,5 C10,7.05011298 8.76615282,8.81204551 7.0005324,9.58372366 L7,12 L3,12 L3.00046106,9.58415773 C1.23431003,8.81270639 0,7.05049747 0,5 C0,2.23857625 2.23857625,0 5,0 Z" id="Combined-Shape"></path>
                        <path d="M3,13 L7,13 L7,14 C7,14.5522847 6.55228475,15 6,15 L4,15 C3.44771525,15 3,14.5522847 3,14 L3,13 L3,13 Z" id="Rectangle"></path>
                    </g>
                </g>
            </g>
        </g>
    </g>
</svg>